<svg id="Layer_1" data-name="Layer 1" xmlns="http://www.w3.org/2000/svg" viewBox="0 0 470.39 239.07"><defs><style>.cls-1{fill:#55acee;}.cls-2{fill:#31373d;}</style></defs><g id="Layer_2" data-name="Layer 2"><rect class="cls-1" x="13.95" y="17.57" width="443.15" height="204.82"/></g><g id="Layer_1-2" data-name="Layer 1"><path class="cls-2" d="M-7.32,119.05v-.22a2.78,2.78,0,0,1,2.37-3.15,2.55,2.55,0,0,1,.78,0H43.27a2.89,2.89,0,0,1,2.14.79,3.23,3.23,0,0,1,.78,2.36v.22h272.5a35.72,35.72,0,0,1,36,35.44V316.05A35.71,35.71,0,0,1,319,351.8H58.11a2.83,2.83,0,0,1-.67,1.91,2.52,2.52,0,0,1-2,.79H27.76a3,3,0,0,1-2-.79,2.47,2.47,0,0,1-.9-1.91H14.49V352a2.47,2.47,0,0,1-.9,1.91,2.71,2.71,0,0,1-1.8.79h-27a3.23,3.23,0,0,1-2.24-.79,2.41,2.41,0,0,1-.9-1.91v-.22H-34.07v.38a1.42,1.42,0,0,1-.34,1,1.78,1.78,0,0,1-1.24.34H-50a2.26,2.26,0,0,1-1.34-.34,1.17,1.17,0,0,1-.45-1v-.45H-79.71a34.71,34.71,0,0,1-25.52-10.46A34.43,34.43,0,0,1-115.69,316V155a34.71,34.71,0,0,1,10.46-25.52,34.73,34.73,0,0,1,25.52-10.41Zm-90.19,58.23a10.25,10.25,0,0,1,8,3.71,12.8,12.8,0,0,1,3.26,8.66v90.83a12.93,12.93,0,0,1-3.26,9,10.4,10.4,0,0,1-8,3.6h-4.24v22.7A22.25,22.25,0,0,0-79.51,338H318.92a21.83,21.83,0,0,0,15.85-6.52,21.27,21.27,0,0,0,6.63-15.74V155.48a21.3,21.3,0,0,0-6.63-15.74,21.81,21.81,0,0,0-15.85-6.56H-79.51a22.26,22.26,0,0,0-22.24,22.28v21.82Zm2.17,44.9a1.6,1.6,0,0,0-1.46-.56,1.23,1.23,0,0,0-.9.56,1.65,1.65,0,0,0-.45,1v24a1.45,1.45,0,0,0,.45,1.24,1.55,1.55,0,0,0,.9.33,2.22,2.22,0,0,0,1.46-.33,1.83,1.83,0,0,0,.34-1.24v-24A2.1,2.1,0,0,0-95.34,222.18Zm-3.6-8.88a3.17,3.17,0,0,0,2.14.9,3.11,3.11,0,0,0,3.37-2.83,4.86,4.86,0,0,0,0-.54,3.6,3.6,0,0,0-.9-2.25,3,3,0,0,0-2.47-1.13,2.91,2.91,0,0,0-2.14,1.13,3.41,3.41,0,0,0-1,2.25,3.14,3.14,0,0,0,1,2.43Z" transform="translate(115.7 -115.65)"/></g></svg>