<svg xmlns="http://www.w3.org/2000/svg" viewBox="0 0 239 470.36"><defs><style>.cls-1{fill:#55acee;}.cls-2{fill:#31373d;}</style></defs><g id="Layer_2" data-name="Layer 2"><rect class="cls-1" x="16.64" y="13.94" width="204.82" height="443.15"/></g><g id="Layer_1" data-name="Layer 1"><path class="cls-2" d="M366.13,123.19h.22a2.79,2.79,0,0,1,3.15,3.15v47.44a2.88,2.88,0,0,1-.79,2.14,3.21,3.21,0,0,1-2.36.78h-.22V449.2a35.72,35.72,0,0,1-36,36h-161a35.71,35.71,0,0,1-35.75-36V188.62a2.82,2.82,0,0,1-1.91-.67,2.52,2.52,0,0,1-.79-2V158.27a3,3,0,0,1,.79-2,2.47,2.47,0,0,1,1.91-.9V145h-.22a2.44,2.44,0,0,1-1.91-.9,2.71,2.71,0,0,1-.79-1.8v-27a3.25,3.25,0,0,1,.79-2.24,2.44,2.44,0,0,1,1.91-.9h.22V96.44H133a1.4,1.4,0,0,1-1-.34,1.77,1.77,0,0,1-.34-1.24V80.47a2.26,2.26,0,0,1,.34-1.34,1.19,1.19,0,0,1,1-.45h.45V50.8a34.73,34.73,0,0,1,10.46-25.52,34.46,34.46,0,0,1,25.29-10.46h161a34.73,34.73,0,0,1,25.52,10.46A34.73,34.73,0,0,1,366.13,50.8ZM307.9,33a10.26,10.26,0,0,1-3.71,8,12.76,12.76,0,0,1-8.66,3.26H204.7a12.92,12.92,0,0,1-9-3.26,10.38,10.38,0,0,1-3.6-8V28.76H169.4A22.26,22.26,0,0,0,147.14,51V449.43a21.81,21.81,0,0,0,6.52,15.85,21.25,21.25,0,0,0,15.74,6.63H329.7a21.27,21.27,0,0,0,15.74-6.63A21.81,21.81,0,0,0,352,449.43V51A22.26,22.26,0,0,0,329.7,28.76H307.9ZM263,35.17a1.59,1.59,0,0,0,.56-1.46,1.23,1.23,0,0,0-.56-.9,1.7,1.7,0,0,0-1-.45H238a1.47,1.47,0,0,0-1.24.45,1.52,1.52,0,0,0-.33.9,2.22,2.22,0,0,0,.33,1.46,1.79,1.79,0,0,0,1.24.34H262A2.08,2.08,0,0,0,263,35.17Zm8.88-3.6a3.2,3.2,0,0,0-.9,2.14,3.11,3.11,0,0,0,3.37,3.37,3.6,3.6,0,0,0,2.25-.9,3,3,0,0,0,1.13-2.47,2.92,2.92,0,0,0-1.13-2.14,3.41,3.41,0,0,0-2.25-1A3.15,3.15,0,0,0,271.92,31.57Z" transform="translate(-130.5 -14.82)"/></g></svg>